<svg width="512" height="512" version="1.1" xmlns="http://www.w3.org/2000/svg">
 <path d="m201 51.6c-12 0-22.7 3.01-31.6 9.07-8.91 5.9-15.1 13.9-18.2 23.5l-1.08 3.4 22.9 10.3 1.37-4.26c1.99-6.22 5.05-10.5 9.21-13.4 4.17-2.88 9.63-4.44 16.8-4.44 7.54 0 13 1.96 17.1 5.74l0.0391 0.0352c4.33 3.87 6.27 8.21 6.27 14 0 4.1-1.22 7.89-3.88 11.7l-0.0254 0.0332-0.0215 0.0352c-2.73 4.09-5.64 7.27-8.68 9.62-3.31 2.42-8.01 5.49-14.1 9.18-6.76 3.92-12.6 7.8-17.6 11.7-5.04 3.92-10 8.69-14.9 14.3-5.15 5.87-9.08 12.7-11.8 20.5-8.8e-4 3e-3 -9.5e-4 0.00481-0.00195 0.00781-2.7 7.68-4.03 16.1-4.03 25.3v4h4 98.2v-25h-72.8c1.66-4.71 4.35-8.91 8.19-12.8 5.4-5.27 12.9-10.8 22.6-16.4l0.0625-0.0352c5.08-3.08 9.1-5.55 12.1-7.45l0.0195-0.0117 0.0176-0.0137c3.24-2.11 6.81-4.8 10.8-8.07 4.05-3.35 7.23-6.63 9.52-9.98 2.39-3.29 4.34-7.15 5.9-11.6 1.63-4.59 2.43-9.53 2.43-14.7 0-13-4.48-24.1-13.3-32.1-8.84-8.25-20.9-12.3-35.5-12.3zm-103 2.4-0.918 2.72c-1.61 4.76-4.19 7.99-8.09 10.3-3.89 2.29-9.28 3.6-16.3 3.6h-4v19.8h23.4v112h4 21.4v-148h-19.5zm327 22a16 16 0 0 0-5.54 0.451 16 16 0 0 0-7.2 4.1l-332 328a16 16 0 0 0-0.137 22.6 16 16 0 0 0 22.6 0.139l332-328a16 16 0 0 0 0.137-22.6 16 16 0 0 0-9.89-4.69zm-6.22 217-4.8 0.982c-23.6 4.83-42.6 16.1-56.5 33.6l-0.00586 0.00782-0.00586 0.00781c-13.7 17.5-20.7 37.9-20.7 60.9 0 16.7 4.3 30.8 13.1 41.7l0.0176 0.0215 0.0195 0.0234c9.03 10.9 22.2 16.5 38.3 16.5 14.2 0 26.5-4.77 36-14.1 9.65-9.37 14.6-21.6 14.6-35.7 0-13.2-4.51-24.7-13.3-34-8.81-9.24-20.1-14-33.1-14-8.64 0-16.2 1.51-22.6 4.54 3.2-6.88 7.64-13.2 13.7-18.8l0.00195-0.00196c9.54-8.9 20.2-14.7 32.2-17.4l3.1-0.717v-23.5zm-132 3.3-0.918 2.72c-1.61 4.76-4.2 7.99-8.09 10.3-3.89 2.29-9.28 3.6-16.3 3.6h-4v19.8h23.4v112h4 21.4v-148h-19.5zm101 76.8c7.99 0 13.8 2.27 18.4 6.83l0.0371 0.0352 0.0352 0.0352c4.66 4.44 6.96 10.1 6.96 17.9 0 7.68-2.28 13.3-6.96 17.7-4.7 4.47-10.6 6.7-18.4 6.7-7.71 0-13.6-2.22-18.5-6.71-4.83-4.61-7.15-10.2-7.15-17.7 0-7.83 2.29-13.5 6.96-17.9v-0.00195h0.00195c4.85-4.62 10.8-6.9 18.6-6.9z" color="#000000" fill="#ffffff" style="-inkscape-stroke:none"/>
</svg>
